<svg xmlns="http://www.w3.org/2000/svg" version="1.1" xmlns:xlink="http://www.w3.org/1999/xlink" xmlns:svgjs="http://svgjs.dev/svgjs" width="1000" height="1000" viewBox="0 0 1000 1000"><rect width="1000" height="1000" fill="#000000"></rect><g transform="matrix(0.7,0,0,0.7,149.5757575757575,387.3897611877146)"><svg viewBox="0 0 396 128" data-background-color="#c6ccb2" preserveAspectRatio="xMidYMid meet" height="323" width="1000" xmlns="http://www.w3.org/2000/svg" xmlns:xlink="http://www.w3.org/1999/xlink"><defs></defs><g id="tight-bounds" transform="matrix(1,0,0,1,0.24000000000003752,-0.24895812484507474)"><svg viewBox="0 0 395.5199999999999 128.49791624969012" height="128.49791624969012" width="395.5199999999999"><g><svg viewBox="0 0 395.5199999999999 128.49791624969012" height="128.49791624969012" width="395.5199999999999"><g><svg viewBox="0 0 397.4975999999999 129.14040583093856" height="128.49791624969012" width="395.5199999999999"><g><rect width="397.4975999999999" height="3.955400066554991" x="0" y="70.96988996634052" fill="#ffffff" opacity="1" stroke-width="0" stroke="transparent" fill-opacity="1" class="rect-ab-0" data-fill-palette-color="secondary" rx="1%" id="ab-0" data-palette-color="#bf4e30"></rect></g><g transform="matrix(1,0,0,1,0.9887999999999693,85.27974046890333)"><svg viewBox="0 0 395.52 43.86066536203523" height="43.86066536203523" width="395.52"><g><svg viewBox="0 0 395.52 43.86066536203523" height="43.86066536203523" width="395.52"><g><svg viewBox="0 0 395.52 43.86066536203523" height="43.86066536203523" width="395.52"><g transform="matrix(1,0,0,1,0,0)"><svg width="395.52" viewBox="4.5 -33.4 306.57 34" height="43.86066536203523" data-palette-color="#093824"><path d="M12.9 0L4.5 0 4.5-32.8 12.7-32.8Q20.3-32.8 24.25-28.6 28.2-24.4 28.2-16.55L28.2-16.55Q28.2-12.65 27.2-9.58 26.2-6.5 24.25-4.38 22.3-2.25 19.45-1.13 16.6 0 12.9 0L12.9 0ZM8.65-29.4L8.65-3.4 12.4-3.4Q18.15-3.4 21.03-6.85 23.9-10.3 23.9-16.55L23.9-16.55Q23.9-22.8 21.03-26.1 18.15-29.4 12.4-29.4L12.4-29.4 8.65-29.4ZM39.4 0L35.25 0 35.25-32.8 45.5-32.8Q48-32.8 50.12-32.33 52.25-31.85 53.77-30.75 55.3-29.65 56.15-27.9 57-26.15 57-23.6L57-23.6Q57-19.75 55-17.45 53-15.15 49.6-14.3L49.6-14.3 57.95 0 53.25 0 45.35-13.85 39.4-13.85 39.4 0ZM39.4-29.45L39.4-17.25 44.9-17.25Q48.75-17.25 50.8-18.82 52.85-20.4 52.85-23.6L52.85-23.6Q52.85-26.85 50.8-28.15 48.75-29.45 44.9-29.45L44.9-29.45 39.4-29.45ZM83.1 0L63.7 0 63.7-32.8 82.6-32.8 82.6-29.3 67.85-29.3 67.85-19 80.3-19 80.3-15.45 67.85-15.45 67.85-3.55 83.1-3.55 83.1 0ZM95.69-18.35L95.69-18.35 94.14-13.35 103.99-13.35 102.44-18.35Q101.54-21.1 100.74-23.83 99.94-26.55 99.14-29.4L99.14-29.4 98.94-29.4Q98.19-26.55 97.39-23.83 96.59-21.1 95.69-18.35ZM89.94 0L85.69 0 96.79-32.8 101.49-32.8 112.59 0 108.14 0 105.04-10 93.09-10 89.94 0ZM120.99 0L117.24 0 117.24-32.8 122.24-32.8 128.54-15.3Q129.14-13.6 129.72-11.88 130.29-10.15 130.89-8.45L130.89-8.45 131.09-8.45Q131.69-10.15 132.22-11.88 132.74-13.6 133.34-15.3L133.34-15.3 139.54-32.8 144.59-32.8 144.59 0 140.69 0 140.69-18.05Q140.69-20.25 140.89-22.9 141.09-25.55 141.24-27.75L141.24-27.75 141.04-27.75 138.44-20.3 132.24-3.3 129.49-3.3 123.29-20.3 120.69-27.75 120.49-27.75Q120.64-25.55 120.82-22.9 120.99-20.25 120.99-18.05L120.99-18.05 120.99 0ZM182.99 0L163.59 0 163.59-32.8 182.49-32.8 182.49-29.3 167.74-29.3 167.74-19 180.19-19 180.19-15.45 167.74-15.45 167.74-3.55 182.99-3.55 182.99 0ZM199.03 0.6L199.03 0.6Q195.58 0.6 192.63-0.7 189.68-2 187.53-4.25L187.53-4.25 190.03-7.15Q191.78-5.3 194.16-4.17 196.53-3.05 199.08-3.05L199.08-3.05Q202.33-3.05 204.13-4.53 205.93-6 205.93-8.4L205.93-8.4Q205.93-9.65 205.51-10.53 205.08-11.4 204.36-12.03 203.63-12.65 202.63-13.15 201.63-13.65 200.48-14.2L200.48-14.2 195.78-16.25Q194.63-16.75 193.43-17.45 192.23-18.15 191.28-19.15 190.33-20.15 189.73-21.53 189.13-22.9 189.13-24.7L189.13-24.7Q189.13-26.55 189.91-28.15 190.68-29.75 192.06-30.93 193.43-32.1 195.31-32.75 197.18-33.4 199.43-33.4L199.43-33.4Q202.38-33.4 204.88-32.27 207.38-31.15 209.13-29.35L209.13-29.35 206.88-26.65Q205.38-28.1 203.56-28.93 201.73-29.75 199.43-29.75L199.43-29.75Q196.68-29.75 195.01-28.48 193.33-27.2 193.33-24.95L193.33-24.95Q193.33-23.75 193.81-22.93 194.28-22.1 195.08-21.48 195.88-20.85 196.83-20.38 197.78-19.9 198.78-19.5L198.78-19.5 203.43-17.5Q204.83-16.9 206.08-16.13 207.33-15.35 208.23-14.33 209.13-13.3 209.66-11.93 210.18-10.55 210.18-8.75L210.18-8.75Q210.18-6.8 209.41-5.1 208.63-3.4 207.18-2.13 205.73-0.85 203.68-0.13 201.63 0.6 199.03 0.6ZM226.63 0L222.43 0 222.43-29.3 212.53-29.3 212.53-32.8 236.53-32.8 236.53-29.3 226.63-29.3 226.63 0ZM246.08-18.35L246.08-18.35 244.53-13.35 254.38-13.35 252.83-18.35Q251.93-21.1 251.13-23.83 250.33-26.55 249.53-29.4L249.53-29.4 249.33-29.4Q248.58-26.55 247.78-23.83 246.98-21.1 246.08-18.35ZM240.33 0L236.08 0 247.18-32.8 251.88-32.8 262.98 0 258.53 0 255.43-10 243.48-10 240.33 0ZM275.88 0L271.68 0 271.68-29.3 261.78-29.3 261.78-32.8 285.78-32.8 285.78-29.3 275.88-29.3 275.88 0ZM311.07 0L291.67 0 291.67-32.8 310.57-32.8 310.57-29.3 295.82-29.3 295.82-19 308.27-19 308.27-15.45 295.82-15.45 295.82-3.55 311.07-3.55 311.07 0Z" opacity="1" transform="matrix(1,0,0,1,0,0)" fill="#ffffff" class="undefined-text-0" data-fill-palette-color="primary" id="text-0"></path></svg></g></svg></g></svg></g></svg></g><g transform="matrix(1,0,0,1,152.39645694295797,0)"><svg viewBox="0 0 92.70468611408401 60.615439530332694" height="60.615439530332694" width="92.70468611408401"><g><svg xmlns="http://www.w3.org/2000/svg" xmlns:xlink="http://www.w3.org/1999/xlink" version="1.1" x="8" y="0" viewBox="11.873928871476872 24.453 120.33367691735613 95.093" enable-background="new 0 0 144.083 144" xml:space="preserve" height="60.615439530332694" width="76.70468611408401" class="icon-icon-0" data-fill-palette-color="accent" id="icon-0"><path d="M132.122 83.668l-10-40.91c-0.328-1.343-1.531-2.288-2.914-2.288H50.292V27.453c0-1.657-1.343-3-3-3h-14c-1.657 0-3 1.343-3 3v13.018h-5.416c-1.382 0-2.586 0.945-2.914 2.288L11.96 83.668c-0.219 0.895-0.015 1.841 0.554 2.565 0.569 0.724 1.439 1.147 2.36 1.147h1.733v29.166c0 1.657 1.343 3 3 3h33.275 9.747 18.824H91.2h33.275c1.658 0 3-1.343 3-3V87.381h1.732c0.922 0 1.791-0.423 2.359-1.147C132.137 85.509 132.34 84.563 132.122 83.668zM125.387 81.381H94.2V67.135c0-0.707-0.25-1.391-0.705-1.932l-7.306-8.678h33.121L125.387 81.381zM49.883 95.748v17.799h-9.745V95.748H49.883zM55.883 113.547v-45.3l16.335-19.002L88.2 68.229v45.317h-3.746V92.861c0-6.844-5.568-12.412-12.412-12.412-6.844 0-12.412 5.568-12.412 12.412v20.686H55.883zM65.63 92.861c0-3.535 2.876-6.412 6.412-6.412 3.537 0 6.412 2.877 6.412 6.412v20.686H65.63V92.861zM94.2 95.748h9.744v17.799H94.2V95.748zM117.843 50.524H81.138l-3.412-4.054h39.126L117.843 50.524zM36.292 30.453h8v10.018h-8V30.453zM66.691 46.471l-3.485 4.054H26.24l0.991-4.054H66.691zM24.773 56.524h33.276l-7.44 8.655c-0.468 0.544-0.725 1.238-0.725 1.956v14.246H18.696L24.773 56.524zM49.883 87.381v2.367H22.608v-2.367H49.883zM22.608 95.748h11.53v17.799h-11.53V95.748zM109.944 113.547V95.748h11.531v17.799H109.944zM121.475 89.748H94.2v-2.367h27.275V89.748z" fill="#ffffff" data-fill-palette-color="accent"></path><rect x="67.708" y="71.454" width="8.666" height="6" fill="#ffffff" data-fill-palette-color="accent"></rect></svg></g></svg></g><g><rect width="75.86333694295797" height="3.955400066554991" y="55.6600394637777" x="245.10114305704198" fill="#ffffff" data-fill-palette-color="secondary"></rect><rect width="75.86333694295797" height="3.955400066554991" y="55.6600394637777" x="76.53311999999998" fill="#ffffff" data-fill-palette-color="secondary"></rect></g></svg></g></svg></g></svg><rect width="395.5199999999999" height="128.49791624969012" fill="none" stroke="none" visibility="hidden"></rect></g></svg></g></svg>